:version 1.10
:name ASF
:units
  mass 1
  length 1
  angle deg
:documentation
  ASF file generated by Kaydara
:root
  axis xyz
  order  tx ty tz rx ry rz
  position 0 0 0
  orientation 0 0 0
:bonedata
  begin
    id 1
    name RightUpLegDummy
    direction -0.65628 -0.754516 0.00165102
    length 4.76918
    axis 0 0 0 xyz
  end
  begin
    id 2
    name RightUpLeg
    direction -0.145584 -0.923362 0.355256
    length 17.9961
    axis -24.7611 -13.1006 1.78531 xyz
    dof rx ry rz
  end
  begin
    id 3
    name RightLeg
    direction 0.263379 0.172355 -0.949171
    length 13.3386
    axis 89.6202 -21.1929 12.3855 xyz
    dof rx ry rz
  end
  begin
    id 4
    name RightFoot
    direction 0.224283 -0.968777 -0.105675
    length 5.86697
    axis 56.995 -39.6905 17.3365 xyz
    dof rx ry rz
  end
  begin
    id 5
    name RightToes
    direction -0.0806345 -0.9037 0.420506
    length 4.75197
    axis 146.825 -39.7828 17.6019 xyz
    dof rx ry rz
  end
  begin
    id 6
    name SpineDummy
    direction -3.39852e-014 1 9.33296e-014
    length 8.13779
    axis 0 0 0 xyz
  end
  begin
    id 7
    name Spine
    direction -0.156609 0.733703 0.661176
    length 7.14978
    axis 41.2365 5.68757 17.0844 xyz
    dof rx ry rz
  end
  begin
    id 8
    name Spine1
    direction 0 0 0
    length 0
    axis 42.8809 47.8308 -3.36039 xyz
    dof rx ry rz
  end
  begin
    id 9
    name HEadDummy
    direction 0.546431 0.701947 0.456819
    length 3.55512
    axis 42.8809 47.8308 -3.36039 xyz
  end
  begin
    id 10
    name HEad
    direction 0.23444 0.828559 0.508457
    length 7.35827
    axis 51.1864 49.2662 27.4903 xyz
    dof rx ry rz
  end
  begin
    id 11
    name LeftShoulder1Dummy
    direction 0.431183 0.475873 -0.766568
    length 2.49352
    axis 42.8809 47.8308 -3.36039 xyz
  end
  begin
    id 12
    name LeftShoulder1
    direction 0.268187 -0.383402 -0.883786
    length 4.48604
    axis -119.517 0.106469 35.1736 xyz
    dof rx ry rz
  end
  begin
    id 13
    name LeftArm
    direction 0.380567 -0.703221 -0.600541
    length 10.1142
    axis -5.41825 36.2925 7.8293 xyz
    dof rx ry rz
  end
  begin
    id 14
    name LeftForeArm
    direction 0.541071 -0.732356 -0.413396
    length 9.39839
    axis 4.65387 33.7604 7.81644 xyz
    dof rx ry rz
  end
  begin
    id 15
    name LeftHand
    direction 0.847511 -0.389379 -0.360707
    length 3.66142
    axis 7.65593 21.1436 -24.6758 xyz
    dof rx ry rz
  end
  begin
    id 16
    name RightShoulderDummy
    direction -0.692546 0.541855 0.476208
    length 2.49352
    axis 42.8809 47.8308 -3.36039 xyz
  end
  begin
    id 17
    name RightShoulder
    direction -0.870808 -0.316653 0.376065
    length 4.48602
    axis 141.571 51.133 -100.254 xyz
    dof rx ry rz
  end
  begin
    id 18
    name RightArm
    direction 0.366897 -0.87275 0.322015
    length 10.1142
    axis 92.3258 71.2036 138.917 xyz
    dof rx ry rz
  end
  begin
    id 19
    name RightForeArm
    direction 0.702487 -0.694568 0.155197
    length 9.39835
    axis 153.863 41.5092 -176.604 xyz
    dof rx ry rz
  end
  begin
    id 20
    name RightHand
    direction 0.79502 -0.601276 0.0800636
    length 3.66142
    axis 154.247 4.59222 142.9 xyz
    dof rx ry rz
  end
  begin
    id 21
    name LeftUpLegDummy
    direction 0.65628 -0.754516 0.00165102
    length 4.76919
    axis 0 0 0 xyz
  end
  begin
    id 22
    name LeftUpLeg
    direction -0.1277 -0.689368 0.713067
    length 17.9961
    axis -48.3385 -17.8675 0.791927 xyz
    dof rx ry rz
  end
  begin
    id 23
    name LeftLeg
    direction 0.109849 -0.991246 -0.0732378
    length 13.3386
    axis -2.05791 -7.30784 1.72042 xyz
    dof rx ry rz
  end
  begin
    id 24
    name LeftFoot
    direction 0.0448355 -0.272614 0.961078
    length 5.86697
    axis -18.7733 -7.89606 10.2113 xyz
    dof rx ry rz
  end
  begin
    id 25
    name LeftToes
    direction -0.18506 0.293668 0.937823
    length 4.75197
    axis 71.2267 -7.89606 10.2113 xyz
    dof rx ry rz
  end
:hierarchy
  begin
    root RightUpLegDummy SpineDummy LeftUpLegDummy
    RightUpLegDummy RightUpLeg
    RightUpLeg RightLeg
    RightLeg RightFoot
    RightFoot RightToes
    SpineDummy Spine
    Spine Spine1
    Spine1 HEadDummy LeftShoulder1Dummy RightShoulderDummy
    HEadDummy HEad
    LeftShoulder1Dummy LeftShoulder1
    LeftShoulder1 LeftArm
    LeftArm LeftForeArm
    LeftForeArm LeftHand
    RightShoulderDummy RightShoulder
    RightShoulder RightArm
    RightArm RightForeArm
    RightForeArm RightHand
    LeftUpLegDummy LeftUpLeg
    LeftUpLeg LeftLeg
    LeftLeg LeftFoot
    LeftFoot LeftToes
  end

:SAMPLES-PER-SECOND 30
:FULLY-SPECIFIED
:DEGREES
424
root  -0.0207896 38.6853 56.8758 -10.7354 1.38346 8.10799
RightUpLeg  -0.0856469 21.7323 -0.15272
RightLeg  -93.0317 -11.2758 -6.68666
RightFoot  31.07 4.59968 -17.1672
RightToes  -1.27222e-014 -6.36111e-015 6.36111e-015
Spine  -34.4907 -20.6795 -14.2464
Spine1  10.398 -14.0868 40.2024
HEad  11.2732 -0.789743 -16.8746
LeftShoulder1  6.36111e-015 -1.33558e-015 6.49777e-015
LeftArm  27.9992 -46.9801 -56.6001
LeftForeArm  -21.9276 -46.7545 14.5882
LeftHand  -1.59307 -2.05237 -12.7849
RightShoulder  -4.77083e-015 -6.36111e-015 -3.18055e-015
RightArm  35.4983 -25.8335 15.7421
RightForeArm  -20.0577 9.74528 -19.9063
RightHand  -0.570634 1.90358 2.19861
LeftUpLeg  50.0165 17.3174 -2.93528
LeftLeg  -17.2435 -16.5666 0.572612
LeftFoot  -8.18115 2.04755 -9.11064
LeftToes  9.54166e-015 4.2066e-011 -8.07781e-011
425
root  0.225112 38.3058 57.7969 -11.2502 -0.477086 8.74248
RightUpLeg  -1.1678 16.292 -0.876018
RightLeg  -99.7563 -15.1168 -16.7833
RightFoot  32.2199 2.30409 -14.4912
RightToes  -1.27222e-014 -6.36111e-015 6.36111e-015
Spine  -34.4718 -22.2315 -15.8931
Spine1  10.6085 -14.745 46.1924
HEad  10.0019 4.0458 -19.3138
LeftShoulder1  6.36111e-015 -1.33558e-015 6.49777e-015
LeftArm  27.8925 -44.6359 -55.882
LeftForeArm  -18.8835 -46.6874 13.0838
LeftHand  -1.43062 -1.60425 -12.1265
RightShoulder  -4.77083e-015 -6.36111e-015 -3.18055e-015
RightArm  35.7499 -24.4247 13.6308
RightForeArm  -19.4796 4.38805 -16.3349
RightHand  0.00834108 1.14198 -1.68671
LeftUpLeg  51.6006 19.4235 -3.57117
LeftLeg  -16.7656 -13.6157 -0.0646959
LeftFoot  -10.2404 1.40444 -6.73084
LeftToes  9.54166e-015 4.2066e-011 -8.07781e-011
426
root  0.295911 37.8527 58.6991 -11.7574 -1.19469 8.21894
RightUpLeg  -2.3057 15.588 0.269434
RightLeg  -98.9338 -15.8779 -19.5551
RightFoot  32.9855 0.297195 -12.2091
RightToes  -1.27222e-014 -6.36111e-015 6.36111e-015
Spine  -32.7171 -23.7479 -17.6709
Spine1  10.9208 -15.6751 53.3462
HEad  7.57827 8.47786 -23.002
LeftShoulder1  6.36111e-015 -1.33558e-015 6.49777e-015
LeftArm  25.7452 -40.0796 -54.7517
LeftForeArm  -14.3436 -45.7092 10.3539
LeftHand  -0.821142 0.07246 -10.2573
RightShoulder  -4.77083e-015 -6.36111e-015 -3.18055e-015
RightArm  35.6676 -21.2892 12.7687
RightForeArm  -18.0539 -3.57758 -11.5994
RightHand  1.14054 -0.609641 -7.56473
LeftUpLeg  51.5361 19.511 -3.92633
LeftLeg  -11.1196 -12.1009 -0.761485
LeftFoot  -13.5267 1.16502 -6.43433
LeftToes  9.54166e-015 4.2066e-011 -8.07781e-011
427
root  0.225279 37.3626 59.6745 -12.3443 -2.15967 5.99298
RightUpLeg  -2.06099 23.1462 4.6965
RightLeg  -94.4124 -13.4295 -13.7413
RightFoot  36.1317 0.0893964 -12.6399
RightToes  -1.27222e-014 -6.36111e-015 6.36111e-015
Spine  -30.5182 -22.7488 -16.141
Spine1  11.4742 -16.1402 56.361
HEad  4.6844 10.7021 -25.8138
LeftShoulder1  6.36111e-015 -1.33558e-015 6.49777e-015
LeftArm  23.6943 -35.3335 -54.6683
LeftForeArm  -8.681 -41.5088 5.87418
LeftHand  -0.101644 1.94034 -8.47109
RightShoulder  -4.77083e-015 -6.36111e-015 -3.18055e-015
RightArm  34.8424 -19.8953 11.2398
RightForeArm  -17.1066 -12.5998 -7.43333
RightHand  2.63981 -3.54385 -12.3443
LeftUpLeg  50.5643 18.3542 -2.15139
LeftLeg  -0.777017 -10.6249 -1.45157
LeftFoot  -15.1379 1.35309 -8.19065
LeftToes  9.54166e-015 4.2066e-011 -8.07781e-011
428
root  0.0640315 36.853 60.759 -12.5079 -2.94637 2.74924
RightUpLeg  -1.44074 29.4522 10.3514
RightLeg  -88.864 -11.0572 -8.3179
RightFoot  39.5091 0.971842 -14.2714
RightToes  -1.27222e-014 -6.36111e-015 6.36111e-015
Spine  -28.7162 -20.128 -12.0304
Spine1  11.6659 -16.2551 55.3668
HEad  2.26841 10.294 -26.1207
LeftShoulder1  6.36111e-015 -1.33558e-015 6.49777e-015
LeftArm  21.8204 -30.6957 -54.5696
LeftForeArm  -4.21789 -34.6581 1.91853
LeftHand  0.0608711 2.33127 -8.05929
RightShoulder  -4.77083e-015 -6.36111e-015 -3.18055e-015
RightArm  33.018 -23.4677 4.52659
RightForeArm  -16.693 -18.253 -4.2619
RightHand  3.28225 -5.03265 -13.5606
LeftUpLeg  47.9344 16.7046 0.919934
LeftLeg  12.2256 -7.45703 -1.30477
LeftFoot  -11.0835 1.79761 -9.01263
LeftToes  9.54166e-015 4.2066e-011 -8.07781e-011
429
root  -0.160257 36.3184 61.7788 -12.1941 -2.32396 -0.209638
RightUpLeg  -3.29331 27.1605 13.5173
RightLeg  -81.6831 -10.9982 -7.28933
RightFoot  38.6436 2.01637 -15.2562
RightToes  -1.27222e-014 -6.36111e-015 6.36111e-015
Spine  -26.7315 -18.052 -8.54085
Spine1  11.4025 -16.2775 55.1318
HEad  -0.436359 8.59341 -25.0986
LeftShoulder1  6.36111e-015 -1.33558e-015 6.49777e-015
LeftArm  18.6688 -24.7607 -52.15
LeftForeArm  -2.15025 -30.0964 0.223005
LeftHand  -0.326522 1.25191 -8.61282
RightShoulder  -4.77083e-015 -6.36111e-015 -3.18055e-015
RightArm  33.9409 -28.5191 -4.92282
RightForeArm  -18.7604 -20.1551 -4.42233
RightHand  2.43942 -3.10542 -11.8789
LeftUpLeg  43.0041 15.1663 3.39374
LeftLeg  25.0975 -2.81257 1.14747
LeftFoot  -1.36343 1.76272 -6.15474
LeftToes  9.54166e-015 4.2066e-011 -8.07781e-011
430
root  -0.440268 35.7205 62.6742 -12.0294 -0.586582 -1.98734
RightUpLeg  -6.42644 22.393 13.9737
RightLeg  -74.0443 -11.1334 -6.26994
RightFoot  34.4358 3.15715 -15.8876
RightToes  -1.27222e-014 -6.36111e-015 6.36111e-015
Spine  -24.9286 -17.0607 -7.09688
Spine1  12.2913 -16.1704 57.2131
HEad  -4.59259 6.96898 -25.1054
LeftShoulder1  6.36111e-015 -1.33558e-015 6.49777e-015
LeftArm  15.4261 -18.3648 -47.4684
LeftForeArm  -3.20896 -31.523 0.828067
LeftHand  -0.623661 0.232848 -8.42779
RightShoulder  -4.77083e-015 -6.36111e-015 -3.18055e-015
RightArm  38.1825 -31.7514 -16.7673
RightForeArm  -23.982 -14.6042 -7.3217
RightHand  1.30171 0.0599253 -9.99667
LeftUpLeg  37.714 14.8574 5.34558
LeftLeg  35.5272 1.71462 5.98914
LeftFoot  6.49933 0.971736 -2.72881
LeftToes  9.54166e-015 4.2066e-011 -8.07781e-011
